<svg width="164" height="164" viewBox="0 0 164 164" fill="none" xmlns="http://www.w3.org/2000/svg">
<path d="M60.9474 89.8925L61.2119 90.157C59.8234 91.6447 58.0051 92.6695 55.9554 93.0332C50.3021 94.025 44.7812 89.628 43.6571 83.2144C42.5 76.8008 46.2027 70.9823 51.856 69.9905C52.418 69.8913 52.8808 69.8582 53.4428 69.8913H61.0796V74.4536C57.3769 74.4536 56.2199 69.8252 51.9221 70.4533C48.6161 71.0484 47.7235 75.2139 48.4177 80.6027C48.8145 80.3382 49.2442 80.1398 49.7401 79.9745C50.7319 79.7101 51.7898 79.677 52.9469 79.9745C53.4428 80.0737 53.9057 80.239 54.3024 80.4374C54.6991 80.6357 55.1289 80.8672 55.5917 81.1978C56.3852 81.6937 57.0794 82.0243 57.7075 82.1896C58.501 82.3548 59.063 82.2557 59.625 81.892L59.9556 82.0243C59.7242 82.454 59.3275 82.8507 58.6993 83.2144C58.1043 83.545 57.41 83.8095 56.6166 83.9417C55.8562 84.074 55.0958 84.0409 54.3354 83.8425C53.8726 83.7434 53.4428 83.5781 53.0461 83.3797C52.6494 83.1813 52.1866 82.9169 51.6907 82.5863C51.2939 82.3218 50.8972 82.0904 50.5666 81.892C50.236 81.7267 49.9054 81.5945 49.5418 81.4953C49.1781 81.4292 48.8475 81.3961 48.5169 81.4292C48.55 81.7267 48.6161 82.0243 48.6492 82.3218C49.7401 88.504 52.2196 93.2315 55.8562 92.5703C57.9059 92.2067 59.625 91.2479 60.9474 89.8925Z" fill="white"/>
<path d="M80.8866 79.677C82.0106 85.9914 78.4071 91.9091 72.82 92.8679C72.258 92.967 71.696 93.0332 71.134 93.0001H71.167H63.5302V69.8913H70.4728H70.4397C75.3987 69.9244 79.8948 73.9907 80.8866 79.677ZM72.7539 92.4381C76.3243 91.81 77.0186 86.5865 75.9607 80.5366C74.9028 74.4866 72.4563 69.8252 68.8859 70.4533C68.6214 70.5194 68.3569 70.5525 68.1255 70.6186C67.7949 76.0404 63.993 77.6934 63.993 81.4292C63.993 85.1649 67.6957 86.8179 68.0925 92.0414C69.5471 92.5703 71.1009 92.7026 72.7539 92.4381Z" fill="white"/>
<path d="M99.9799 89.8925L100.244 90.157C98.8559 91.6447 97.0376 92.6695 94.9879 93.0332C89.3347 94.025 83.8137 89.628 82.6896 83.2144C81.5326 76.8008 85.2352 70.9823 90.8885 69.9905C91.4505 69.8913 91.9133 69.8582 92.4753 69.8913H100.112V74.4536C96.4095 74.4536 95.2524 69.8252 90.9546 70.4533C87.6486 71.0484 86.756 75.2139 87.4503 80.6027C87.847 80.3382 88.2768 80.1398 88.7726 79.9745C89.7644 79.7101 90.8224 79.677 91.9795 79.9745C92.4753 80.0737 92.9382 80.239 93.3349 80.4374C93.7316 80.6357 94.1614 80.8672 94.6242 81.1978C95.4177 81.6937 96.1119 82.0243 96.7401 82.1896C97.5335 82.3548 98.0955 82.2557 98.6575 81.892L98.9881 82.0243C98.7567 82.454 98.36 82.8507 97.7319 83.2144C97.1368 83.545 96.4425 83.8095 95.6491 83.9417C94.8887 84.074 94.1283 84.0409 93.368 83.8425C92.9051 83.7434 92.4753 83.5781 92.0786 83.3797C91.6819 83.1813 91.2191 82.9169 90.7232 82.5863C90.3265 82.3218 89.9297 82.0904 89.5991 81.892C89.2685 81.7267 88.9379 81.5945 88.5743 81.4953C88.2106 81.4292 87.88 81.3961 87.5494 81.4292C87.5825 81.7267 87.6486 82.0243 87.6817 82.3218C88.7726 88.504 91.2521 93.2315 94.8887 92.5703C96.9384 92.2067 98.6575 91.2479 99.9799 89.8925Z" fill="white"/>
<path d="M114.101 69.8913H118.729V93.0001H114.53L103.026 70.6847V81.4622C103.026 85.3633 107.191 86.9832 107.191 93.0001H102.563V69.8913H106.761L115.721 87.2477C116.878 85.2311 118.266 83.7103 118.266 81.4622C118.266 77.5281 114.101 75.9082 114.101 69.8913Z" fill="white"/>
</svg>
