<svg width="164" height="164" viewBox="0 0 164 164" fill="none" xmlns="http://www.w3.org/2000/svg">
<path fill-rule="evenodd" clip-rule="evenodd" d="M46.7361 99.4722C56.5315 99.4722 64.4722 91.5315 64.4722 81.7361C64.4722 71.9407 56.5315 64 46.7361 64C36.9407 64 29 71.9407 29 81.7361C29 91.5315 36.9407 99.4722 46.7361 99.4722ZM52.2692 72.2622C52.5385 71.3055 51.6101 70.7398 50.7622 71.3439L38.9261 79.7759C38.0066 80.431 38.1512 81.7361 39.1434 81.7361H42.2602V81.712H48.3346L43.3851 83.4584L41.2031 91.21C40.9338 92.1667 41.8621 92.7324 42.71 92.1283L54.5461 83.6964C55.4657 83.0413 55.3209 81.7361 54.3289 81.7361H49.6024L52.2692 72.2622Z" fill="white"/>
<path d="M78.1894 72.3121V90.7363H73.1875V72.3121H78.1894Z" fill="white"/>
<path d="M84.0778 82.9636V90.7363H79.1119V76.9181H83.8259V79.545H83.9698C84.2697 78.6694 84.7975 77.9827 85.5532 77.4849C86.3148 76.9871 87.2025 76.7382 88.216 76.7382C89.1936 76.7382 90.0423 76.9631 90.762 77.4129C91.4877 77.8568 92.0484 78.4685 92.4443 79.2482C92.8461 80.0278 93.044 80.9185 93.038 81.92V90.7363H88.0721V82.9636C88.0781 82.2799 87.9042 81.7431 87.5503 81.3533C87.2025 80.9634 86.7167 80.7685 86.0929 80.7685C85.6851 80.7685 85.3282 80.8585 85.0224 81.0384C84.7225 81.2123 84.4916 81.4642 84.3297 81.7941C84.1677 82.118 84.0838 82.5078 84.0778 82.9636Z" fill="white"/>
<path d="M102.21 76.9181V80.5166H93.1058V76.9181H102.21ZM94.8691 73.6075H99.835V86.2922C99.835 86.4841 99.868 86.646 99.934 86.778C99.9999 86.9039 100.102 86.9999 100.24 87.0659C100.378 87.1258 100.555 87.1558 100.771 87.1558C100.921 87.1558 101.094 87.1378 101.292 87.1019C101.496 87.0659 101.646 87.0359 101.742 87.0119L102.462 90.5024C102.24 90.5684 101.922 90.6494 101.508 90.7453C101.1 90.8413 100.615 90.9043 100.051 90.9342C98.9114 90.9942 97.9548 90.8773 97.1811 90.5834C96.4074 90.2835 95.8257 89.8127 95.4359 89.171C95.046 88.5293 94.8571 87.7256 94.8691 86.76V73.6075Z" fill="white"/>
<path d="M109.189 90.9882C107.714 90.9882 106.442 90.7063 105.375 90.1426C104.313 89.5728 103.495 88.7572 102.919 87.6956C102.349 86.6281 102.064 85.3506 102.064 83.8632C102.064 82.4358 102.352 81.1883 102.928 80.1208C103.504 79.0532 104.316 78.2226 105.366 77.6288C106.415 77.0351 107.654 76.7382 109.081 76.7382C110.125 76.7382 111.069 76.9002 111.915 77.224C112.761 77.5479 113.483 78.0187 114.083 78.6364C114.683 79.2482 115.145 79.9919 115.469 80.8675C115.792 81.7431 115.954 82.7297 115.954 83.8272V84.9788H103.612V82.2439H111.384C111.378 81.8481 111.276 81.5002 111.078 81.2003C110.886 80.8945 110.626 80.6576 110.296 80.4896C109.972 80.3157 109.603 80.2288 109.189 80.2288C108.787 80.2288 108.419 80.3157 108.083 80.4896C107.747 80.6576 107.477 80.8915 107.273 81.1913C107.075 81.4912 106.97 81.8421 106.958 82.2439V85.1947C106.958 85.6385 107.051 86.0343 107.237 86.3822C107.423 86.73 107.69 87.0029 108.038 87.2008C108.386 87.3987 108.805 87.4977 109.297 87.4977C109.639 87.4977 109.951 87.4497 110.233 87.3538C110.521 87.2578 110.767 87.1199 110.97 86.9399C111.174 86.754 111.324 86.5321 111.42 86.2742H115.954C115.798 87.2338 115.43 88.0675 114.848 88.7752C114.266 89.4769 113.495 90.0226 112.536 90.4125C111.582 90.7963 110.467 90.9882 109.189 90.9882Z" fill="white"/>
<path d="M116.461 90.7363V76.9181H121.283V79.545H121.427C121.679 78.5734 122.077 77.8627 122.623 77.4129C123.175 76.9631 123.82 76.7382 124.557 76.7382C124.773 76.7382 124.986 76.7562 125.196 76.7922C125.412 76.8222 125.619 76.8672 125.817 76.9271V81.1644C125.571 81.0804 125.268 81.0174 124.908 80.9754C124.548 80.9335 124.239 80.9125 123.982 80.9125C123.496 80.9125 123.058 81.0234 122.668 81.2453C122.284 81.4612 121.981 81.7671 121.759 82.1629C121.538 82.5528 121.427 83.0116 121.427 83.5394V90.7363H116.461Z" fill="white"/>
<path d="M125.925 90.7363V76.9181H130.747V79.545H130.891C131.143 78.5734 131.542 77.8627 132.088 77.4129C132.639 76.9631 133.284 76.7382 134.022 76.7382C134.238 76.7382 134.451 76.7562 134.66 76.7922C134.876 76.8222 135.083 76.8672 135.281 76.9271V81.1644C135.035 81.0804 134.732 81.0174 134.373 80.9754C134.013 80.9335 133.704 80.9125 133.446 80.9125C132.96 80.9125 132.522 81.0234 132.132 81.2453C131.749 81.4612 131.446 81.7671 131.224 82.1629C131.002 82.5528 130.891 83.0116 130.891 83.5394V90.7363H125.925Z" fill="white"/>
</svg>
