<svg width="164" height="164" viewBox="0 0 164 164" fill="none" xmlns="http://www.w3.org/2000/svg">
<path d="M51.3032 91.8766L31.1913 78.0034C29.1533 76.5976 29.8461 73.6705 32.3875 72.9822L53.7628 67.1807C54.2156 67.0173 54.7008 66.9642 55.1783 67.026C55.6556 67.0877 56.1114 67.2624 56.5078 67.5355C56.9041 67.8087 57.2297 68.1724 57.4573 68.5966C57.6848 69.0207 57.808 69.4931 57.8166 69.9743L56.5498 89.6479C56.3995 91.9831 53.3413 93.2824 51.3032 91.8766Z" fill="white"/>
<path d="M44.9263 95.3011L33.0777 72.1299C32.8069 71.5999 32.6877 71.0053 32.7333 70.4117C32.779 69.8182 32.9876 69.2488 33.3363 68.7663C33.6849 68.2839 34.1601 67.9071 34.7093 67.6775C35.2585 67.4479 35.8605 67.3744 36.4488 67.4652L58.407 70.8542C58.9125 70.9322 59.3923 71.1291 59.807 71.4287C60.2216 71.7283 60.5591 72.1221 60.792 72.5776C61.0247 73.0331 61.1461 73.5373 61.146 74.0489C61.1459 74.5604 61.0244 75.0646 60.7915 75.52L50.6762 95.3022C50.4046 95.8308 49.9925 96.2743 49.4852 96.5838C48.9779 96.8935 48.3952 97.0571 47.8009 97.057C47.2066 97.0569 46.6239 96.893 46.1167 96.5833C45.6096 96.2734 45.1977 95.8298 44.9263 95.3011Z" fill="white"/>
<path d="M57.7642 70.7549L46.8182 69.0654L33.3789 72.7145L38.7432 83.2087L51.3047 91.8768C51.5818 92.0659 51.8866 92.2107 52.2083 92.3061L56.9795 82.9756L57.7642 70.7549Z" fill="white"/>
<path d="M68 73.4634C68 73.0565 68.1206 72.6588 68.3466 72.3205C68.5728 71.9822 68.894 71.7185 69.2699 71.5628C69.6458 71.4071 70.0594 71.3664 70.4585 71.4458C70.8575 71.5252 71.2241 71.7211 71.5117 72.0088C71.7995 72.2965 71.9953 72.663 72.0747 73.0621C72.1541 73.4611 72.1134 73.8747 71.9577 74.2506C71.802 74.6265 71.5383 74.9478 71.2001 75.1739C70.8617 75.3999 70.464 75.5205 70.0571 75.5205C69.5132 75.515 68.9933 75.2965 68.6086 74.9119C68.2241 74.5273 68.0055 74.0073 68 73.4634ZM68.343 76.5261H71.7724V87.9542H68.343V76.5261Z" fill="white"/>
<path d="M86.581 82.2392C86.6209 82.9946 86.5109 83.7504 86.2576 84.4632C86.0043 85.1758 85.6126 85.8315 85.1051 86.3924C84.5975 86.9531 83.984 87.4081 83.2999 87.7311C82.6159 88.0539 81.8747 88.2384 81.1191 88.2739C80.4836 88.3084 79.8483 88.2012 79.2592 87.9601C78.6702 87.7188 78.1422 87.3497 77.7134 86.8793V92.5249H74.2852V76.5251H77.7134V77.5991C78.1423 77.1288 78.6703 76.7599 79.2594 76.5189C79.8484 76.2779 80.4837 76.1709 81.1191 76.2056C81.8747 76.2409 82.6158 76.4253 83.2998 76.748C83.9839 77.0709 84.5974 77.5257 85.105 78.0864C85.6126 78.6472 86.0043 79.3027 86.2576 80.0155C86.5109 80.7281 86.6209 81.4838 86.581 82.2392ZM83.1527 82.2392C83.1393 81.7041 82.9683 81.1849 82.6613 80.7465C82.3542 80.3082 81.9246 79.9701 81.4264 79.7747C80.9281 79.5791 80.3833 79.5351 79.8601 79.6477C79.3369 79.7604 78.8584 80.0249 78.4848 80.4081C78.1111 80.7912 77.8588 81.2762 77.7593 81.8021C77.6599 82.328 77.7178 82.8716 77.9258 83.3647C78.1338 83.8579 78.4825 84.2787 78.9285 84.5747C79.3746 84.8707 79.8979 85.0284 80.4331 85.0284C80.8006 85.045 81.1675 84.9836 81.5096 84.8484C81.8518 84.713 82.1614 84.5069 82.4182 84.2435C82.6751 83.9801 82.8733 83.6654 83 83.3199C83.1265 82.9745 83.1786 82.6061 83.1527 82.2392Z" fill="white"/>
<path d="M97.164 84.5235C97.164 87.1524 94.8782 88.2723 92.4097 88.2723C91.4125 88.3625 90.4111 88.1514 89.5351 87.6664C88.6591 87.1814 87.9489 86.4446 87.4961 85.5515L90.4669 83.8609C90.5878 84.2738 90.8465 84.6327 91.2002 84.8775C91.5538 85.1223 91.9808 85.2384 92.4097 85.2062C93.2326 85.2062 93.6429 84.954 93.6429 84.4977C93.6429 83.2399 88.0208 83.9035 88.0208 79.9484C88.0208 77.4574 90.1227 76.2007 92.505 76.2007C93.3986 76.1727 94.2832 76.3847 95.0665 76.8147C95.8513 77.2447 96.5048 77.877 96.9611 78.6457L94.0364 80.2231C93.9085 79.9231 93.695 79.6674 93.4227 79.488C93.1503 79.3085 92.8311 79.2133 92.505 79.2141C91.9108 79.2141 91.5454 79.4383 91.5454 79.8542C91.542 81.1659 97.164 80.2971 97.164 84.5235Z" fill="white"/>
<path d="M109.691 76.5254V87.9535H106.263V86.8773C105.867 87.3514 105.364 87.7249 104.796 87.9674C104.228 88.2098 103.611 88.3141 102.994 88.2719C100.686 88.2719 98.7207 86.6262 98.7207 83.5399V76.5254H102.149V83.0399C102.12 83.3123 102.151 83.5877 102.24 83.8469C102.328 84.1061 102.472 84.343 102.661 84.541C102.851 84.739 103.081 84.8932 103.335 84.9931C103.591 85.0931 103.864 85.1362 104.138 85.1195C105.394 85.1195 106.268 84.3885 106.268 82.7652V76.5254H109.691Z" fill="white"/>
<path d="M129.341 80.9361V87.9539H125.913V81.2343C125.913 80.0919 125.364 79.3598 124.267 79.3598C123.124 79.3598 122.485 80.1603 122.485 81.5089V87.9539H119.056V81.2343C119.056 80.0919 118.507 79.3598 117.41 79.3598C116.268 79.3598 115.627 80.1603 115.627 81.5089V87.9539H112.199V76.5258H115.633V77.5729C115.988 77.1066 116.455 76.7369 116.99 76.4973C117.524 76.2579 118.112 76.1563 118.696 76.2018C119.282 76.1731 119.867 76.297 120.392 76.5612C120.917 76.8255 121.364 77.2211 121.69 77.7096C122.07 77.1986 122.574 76.7921 123.153 76.5284C123.733 76.2647 124.371 76.1523 125.005 76.2018C127.628 76.2063 129.341 78.0796 129.341 80.9361Z" fill="white"/>
<path d="M132.246 76.4548C133.652 76.4548 134.791 75.3155 134.791 73.91C134.791 72.5046 133.652 71.3652 132.246 71.3652C130.84 71.3652 129.701 72.5046 129.701 73.91C129.701 75.3155 130.84 76.4548 132.246 76.4548Z" fill="white"/>
</svg>
