<svg width="164" height="164" viewBox="0 0 164 164" fill="none" xmlns="http://www.w3.org/2000/svg">
<path d="M75.1102 81.1948C72.2204 84.0847 67.3261 84.0731 65.9593 80.2216C65.6917 79.4676 65.4777 78.6922 65.3203 77.9011C64.6778 74.6708 65.0076 71.3226 66.268 68.2797C67.5283 65.237 69.6627 62.6362 72.4012 60.8064C75.1397 58.9766 78.3592 58 81.6528 58C84.9463 58 88.1658 58.9766 90.9043 60.8064C93.6428 62.6362 95.7771 65.237 97.0375 68.2798C98.2979 71.3226 98.6276 74.6708 97.9851 77.9011C97.8277 78.6922 97.6138 79.4676 97.3461 80.2216C95.9793 84.0731 91.085 84.0847 88.1952 81.1948L83.7343 76.7339C83.3081 76.3077 83.3521 75.6048 83.4697 75.0137C83.5411 74.6544 83.5044 74.2819 83.3642 73.9434C83.224 73.6049 82.9866 73.3155 82.6819 73.112C82.3773 72.9085 82.0191 72.7998 81.6528 72.7998C81.2864 72.7998 80.9282 72.9085 80.6236 73.112C80.3188 73.3155 80.0814 73.6049 79.9412 73.9434C79.801 74.2819 79.7643 74.6544 79.8358 75.0137C79.9534 75.6048 79.9973 76.3077 79.5711 76.7339L75.1102 81.1948Z" fill="white"/>
<path d="M47.7764 106.321C46.7067 106.321 45.8065 106.134 45.0756 105.759C44.3446 105.367 43.792 104.85 43.4176 104.208C43.0611 103.549 42.8828 102.8 42.8828 101.962C42.8828 101.855 42.8828 101.766 42.8828 101.695C42.9006 101.606 42.9096 101.561 42.9096 101.561H45.851V101.775C45.851 102.559 46.065 103.121 46.4928 103.46C46.9207 103.781 47.3842 103.941 47.8833 103.941C48.3647 103.941 48.8103 103.807 49.2204 103.54C49.6482 103.272 49.8621 102.836 49.8621 102.23C49.8621 101.695 49.6928 101.285 49.3541 100.999C49.0332 100.714 48.6142 100.491 48.0973 100.331C47.5981 100.153 47.0633 99.9833 46.4928 99.8229C45.9223 99.6446 45.3786 99.4129 44.8616 99.1276C44.3625 98.8424 43.9435 98.4413 43.6048 97.9243C43.2839 97.3895 43.1235 96.6853 43.1235 95.8118C43.1235 94.8848 43.3285 94.1093 43.7385 93.4853C44.1664 92.8614 44.7458 92.3979 45.4767 92.0948C46.2076 91.7739 47.0276 91.6135 47.9368 91.6135C48.8282 91.6135 49.6126 91.7739 50.29 92.0948C50.9674 92.4157 51.4933 92.8614 51.8677 93.4319C52.2599 94.0023 52.456 94.6708 52.456 95.4374C52.456 95.5622 52.4471 95.687 52.4293 95.8118C52.4293 95.9366 52.4293 96.0079 52.4293 96.0257H49.5145V95.9187C49.4967 95.3126 49.3452 94.8402 49.0599 94.5015C48.7925 94.1628 48.3736 93.9934 47.8031 93.9934C47.4109 93.9934 47.0811 94.0736 46.8137 94.2341C46.5641 94.3767 46.3769 94.5639 46.2521 94.7956C46.1274 95.0274 46.065 95.2859 46.065 95.5711C46.065 96.0346 46.2254 96.3912 46.5463 96.6407C46.8672 96.8903 47.2772 97.0953 47.7764 97.2558C48.2934 97.4162 48.8371 97.5767 49.4076 97.7371C49.978 97.8976 50.5218 98.1293 51.0387 98.4324C51.5557 98.7176 51.9747 99.1365 52.2956 99.6892C52.6164 100.224 52.7769 100.946 52.7769 101.855C52.7769 102.943 52.554 103.816 52.1084 104.476C51.6805 105.118 51.0922 105.59 50.3435 105.893C49.5947 106.178 48.739 106.321 47.7764 106.321Z" fill="white"/>
<path d="M56.853 106.321C56.5321 106.321 56.1577 106.267 55.7299 106.16C55.3198 106.053 54.9276 105.866 54.5533 105.599C54.1789 105.314 53.8669 104.913 53.6173 104.396C53.3856 103.879 53.2697 103.201 53.2697 102.363C53.2697 101.08 53.5728 100.09 54.1789 99.395C54.785 98.6998 55.614 98.2184 56.6658 97.951C57.7354 97.6658 58.9477 97.5232 60.3025 97.5232V95.9187C60.3025 95.3839 60.1866 94.9293 59.9549 94.555C59.741 94.1806 59.2775 93.9934 58.5644 93.9934C57.8513 93.9934 57.361 94.1806 57.0936 94.555C56.8441 94.9293 56.7193 95.3215 56.7193 95.7316V96.1059H53.9115C53.8937 96.0168 53.8847 95.9277 53.8847 95.8385C53.8847 95.7494 53.8847 95.6424 53.8847 95.5176C53.8847 94.3054 54.3126 93.3516 55.1683 92.6564C56.024 91.9611 57.156 91.6135 58.5644 91.6135C60.1332 91.6135 61.2919 91.97 62.0407 92.6831C62.7894 93.3962 63.1638 94.3945 63.1638 95.6781V102.952C63.1638 103.29 63.244 103.531 63.4045 103.674C63.5649 103.816 63.7343 103.887 63.9125 103.887H64.6345V105.893C64.4741 105.982 64.2512 106.071 63.966 106.16C63.6808 106.25 63.3242 106.294 62.8964 106.294C62.2724 106.294 61.7554 106.125 61.3454 105.786C60.9354 105.447 60.6502 105.011 60.4897 104.476H60.356C59.9816 105.028 59.5181 105.474 58.9655 105.813C58.4307 106.152 57.7265 106.321 56.853 106.321ZM57.8959 103.887C58.395 103.887 58.8229 103.754 59.1794 103.486C59.536 103.201 59.8123 102.818 60.0084 102.337C60.2045 101.855 60.3025 101.303 60.3025 100.679V99.7159C59.5538 99.7159 58.8674 99.7872 58.2435 99.9299C57.6374 100.055 57.1471 100.295 56.7727 100.652C56.3984 100.991 56.2112 101.481 56.2112 102.123C56.2112 102.711 56.3449 103.157 56.6123 103.46C56.8975 103.745 57.3254 103.887 57.8959 103.887Z" fill="white"/>
<path d="M68.246 106L63.9942 91.9344H67.0427L68.8878 98.3521C68.9769 98.6196 69.066 98.9583 69.1552 99.3683C69.2443 99.7783 69.3334 100.197 69.4226 100.625C69.5117 101.035 69.583 101.401 69.6365 101.721C69.7078 102.042 69.7613 102.247 69.797 102.337H69.9039C69.9217 102.247 69.9574 102.042 70.0109 101.721C70.0822 101.401 70.1535 101.044 70.2248 100.652C70.3139 100.242 70.4031 99.8318 70.4922 99.4218C70.5813 98.9939 70.6705 98.6285 70.7596 98.3254L72.578 91.9344H75.466L71.2142 106H68.246Z" fill="white"/>
<path d="M78.6864 106.321C78.3655 106.321 77.9911 106.267 77.5633 106.16C77.1532 106.053 76.761 105.866 76.3867 105.599C76.0123 105.314 75.7003 104.913 75.4507 104.396C75.219 103.879 75.1031 103.201 75.1031 102.363C75.1031 101.08 75.4062 100.09 76.0123 99.395C76.6184 98.6998 77.4474 98.2184 78.4992 97.951C79.5688 97.6658 80.7811 97.5232 82.1359 97.5232V95.9187C82.1359 95.3839 82.02 94.9293 81.7883 94.555C81.5744 94.1806 81.1109 93.9934 80.3978 93.9934C79.6847 93.9934 79.1944 94.1806 78.927 94.555C78.6775 94.9293 78.5527 95.3215 78.5527 95.7316V96.1059H75.7449C75.7271 96.0168 75.7181 95.9277 75.7181 95.8385C75.7181 95.7494 75.7181 95.6424 75.7181 95.5176C75.7181 94.3054 76.146 93.3516 77.0017 92.6564C77.8574 91.9611 78.9894 91.6135 80.3978 91.6135C81.9666 91.6135 83.1253 91.97 83.8741 92.6831C84.6228 93.3962 84.9972 94.3945 84.9972 95.6781V102.952C84.9972 103.29 85.0774 103.531 85.2379 103.674C85.3983 103.816 85.5676 103.887 85.7459 103.887H86.4679V105.893C86.3075 105.982 86.0846 106.071 85.7994 106.16C85.5142 106.25 85.1576 106.294 84.7298 106.294C84.1058 106.294 83.5888 106.125 83.1788 105.786C82.7688 105.447 82.4836 105.011 82.3231 104.476H82.1894C81.815 105.028 81.3515 105.474 80.7989 105.813C80.2641 106.152 79.5599 106.321 78.6864 106.321ZM79.7293 103.887C80.2284 103.887 80.6563 103.754 81.0128 103.486C81.3694 103.201 81.6457 102.818 81.8418 102.337C82.0379 101.855 82.1359 101.303 82.1359 100.679V99.7159C81.3872 99.7159 80.7008 99.7872 80.0769 99.9299C79.4708 100.055 78.9805 100.295 78.6061 100.652C78.2318 100.991 78.0446 101.481 78.0446 102.123C78.0446 102.711 78.1783 103.157 78.4457 103.46C78.7309 103.745 79.1588 103.887 79.7293 103.887Z" fill="white"/>
<path d="M87.1914 106V91.9344H89.5178L89.812 93.6458H89.9724C90.3468 93.0397 90.8281 92.5494 91.4164 92.175C92.0047 91.8007 92.6911 91.6135 93.4755 91.6135C94.5629 91.6135 95.4454 91.9433 96.1228 92.6029C96.8002 93.2625 97.1389 94.4123 97.1389 96.0524V106H94.2777V96.6675C94.2777 95.7405 94.1083 95.0987 93.7696 94.7421C93.4309 94.3856 92.9674 94.2073 92.3791 94.2073C91.7373 94.2073 91.1847 94.5015 90.7212 95.0898C90.2755 95.6781 90.0526 96.4357 90.0526 97.3627V106H87.1914Z" fill="white"/>
<path d="M99.1265 106V91.9344H101.453L101.747 93.6458H101.908C102.282 93.0397 102.763 92.5494 103.352 92.175C103.94 91.8007 104.626 91.6135 105.411 91.6135C106.498 91.6135 107.381 91.9433 108.058 92.6029C108.735 93.2625 109.074 94.4123 109.074 96.0524V106H106.213V96.6675C106.213 95.7405 106.043 95.0987 105.705 94.7421C105.366 94.3856 104.903 94.2073 104.314 94.2073C103.672 94.2073 103.12 94.5015 102.656 95.0898C102.211 95.6781 101.988 96.4357 101.988 97.3627V106H99.1265Z" fill="white"/>
<path d="M113.682 106.321C113.361 106.321 112.987 106.267 112.559 106.16C112.149 106.053 111.757 105.866 111.383 105.599C111.008 105.314 110.696 104.913 110.447 104.396C110.215 103.879 110.099 103.201 110.099 102.363C110.099 101.08 110.402 100.09 111.008 99.395C111.614 98.6998 112.443 98.2184 113.495 97.951C114.565 97.6658 115.777 97.5232 117.132 97.5232V95.9187C117.132 95.3839 117.016 94.9293 116.784 94.555C116.57 94.1806 116.107 93.9934 115.394 93.9934C114.681 93.9934 114.19 94.1806 113.923 94.555C113.673 94.9293 113.549 95.3215 113.549 95.7316V96.1059H110.741C110.723 96.0168 110.714 95.9277 110.714 95.8385C110.714 95.7494 110.714 95.6424 110.714 95.5176C110.714 94.3054 111.142 93.3516 111.998 92.6564C112.853 91.9611 113.985 91.6135 115.394 91.6135C116.962 91.6135 118.121 91.97 118.87 92.6831C119.619 93.3962 119.993 94.3945 119.993 95.6781V102.952C119.993 103.29 120.073 103.531 120.234 103.674C120.394 103.816 120.564 103.887 120.742 103.887H121.464V105.893C121.303 105.982 121.081 106.071 120.795 106.16C120.51 106.25 120.154 106.294 119.726 106.294C119.102 106.294 118.585 106.125 118.175 105.786C117.765 105.447 117.479 105.011 117.319 104.476H117.185C116.811 105.028 116.347 105.474 115.795 105.813C115.26 106.152 114.556 106.321 113.682 106.321ZM114.725 103.887C115.224 103.887 115.652 103.754 116.009 103.486C116.365 103.201 116.642 102.818 116.838 102.337C117.034 101.855 117.132 101.303 117.132 100.679V99.7159C116.383 99.7159 115.697 99.7872 115.073 99.9299C114.467 100.055 113.976 100.295 113.602 100.652C113.228 100.991 113.04 101.481 113.04 102.123C113.04 102.711 113.174 103.157 113.442 103.46C113.727 103.745 114.155 103.887 114.725 103.887Z" fill="white"/>
</svg>
