<svg width="368" height="368" viewBox="0 0 368 368" fill="none" xmlns="http://www.w3.org/2000/svg">
<path d="M177.98 100.395C150.29 100.395 126.843 118.624 118.942 143.763C87.2079 146.42 62.2793 173.08 62.2793 205.574C62.2793 239.832 89.9879 267.603 124.166 267.603H231.795V267.546C264.724 266.134 290.99 238.929 290.99 205.574C290.99 174.036 267.507 147.995 237.11 144.06C229.301 118.767 205.781 100.395 177.98 100.395Z" fill="url(#paint0_linear_1722_5700)"/>
<path d="M281.906 201.376V188.787C284.012 188.064 286.747 187.105 288.9 185.958L297.89 194.87C298.739 195.718 300.153 195.718 300.986 194.87L313.764 182.107C314.613 181.259 314.629 179.891 313.764 179.058L304.868 170.367C306.016 168.213 306.974 165.872 307.697 163.75H320.302C321.497 163.75 322 162.351 322 161.157V143.113C322 141.919 321.481 140.52 320.302 140.52H307.697C306.974 138.414 306.031 136.072 304.868 133.919L313.78 125.117C314.629 124.269 314.629 122.964 313.78 122.115L301.018 109.385C300.169 108.536 298.817 108.552 297.968 109.385L288.884 118.296C286.715 117.149 283.996 116.206 281.89 115.467V102.878C281.89 101.683 281.277 100.395 280.083 100.395H262.039C260.845 100.395 260.782 101.683 260.782 102.878V115.467C256.554 116.206 255.674 117.149 253.521 118.296L244.373 109.4C243.54 108.552 242.047 108.552 241.199 109.4L228.374 122.163C227.525 123.011 227.509 124.379 228.342 125.227L237.238 133.919C236.091 136.072 235.116 138.414 234.393 140.52H221.804C220.609 140.52 220.657 141.919 220.657 143.113V161.157C220.657 162.351 220.609 163.75 221.804 163.75H234.393C235.116 165.856 236.075 168.198 237.222 170.367L228.311 179.168C227.462 180.001 227.462 181.321 228.311 182.17L241.073 194.901C241.922 195.75 243.289 195.734 244.122 194.901L253.489 185.989C255.643 187.137 256.538 188.08 260.751 188.818V201.408C260.751 202.602 260.813 203.891 262.008 203.891H280.051C281.246 203.891 281.859 202.602 281.859 201.408L281.906 201.376Z" fill="#00D7FF"/>
<path d="M270.171 169.551C261.054 169.551 253.668 162.164 253.668 153.048C253.668 143.931 261.054 136.545 270.171 136.545C279.287 136.545 286.674 143.931 286.674 153.048C286.674 162.164 279.287 169.551 270.171 169.551Z" stroke="#25284C" stroke-width="11.5" stroke-linejoin="round"/>
<path d="M144.098 204.35H82.1348" stroke="white" stroke-width="15.4387" stroke-linejoin="round"/>
<path d="M64.0662 204.35H46" stroke="white" stroke-width="15.4387" stroke-linejoin="round"/>
<path d="M123.454 181.113H56.3203" stroke="white" stroke-width="15.4387" stroke-linejoin="round"/>
<defs>
<linearGradient id="paint0_linear_1722_5700" x1="176.635" y1="100.395" x2="176.635" y2="267.603" gradientUnits="userSpaceOnUse">
<stop stop-color="#575EFE" stop-opacity="0"/>
<stop offset="1" stop-color="#575EFE"/>
</linearGradient>
</defs>
</svg>
