<svg width="142" height="20" viewBox="0 0 142 20" fill="none" xmlns="http://www.w3.org/2000/svg">
<path d="M11.7093 9.3152L12.0537 8.52513C13.2287 8.55214 14.1943 8.73447 14.9506 9.0721C15.7204 9.39624 16.2944 9.85542 16.6726 10.4497C17.0507 11.0304 17.2398 11.7057 17.2398 12.4755C17.2398 13.2993 17.0507 14.0354 16.6726 14.6837C16.2944 15.3184 15.7272 15.8249 14.9709 16.203C14.2281 16.5677 13.2962 16.75 12.1752 16.75H0.95214L2.12712 8.95055L0.95214 1.55627L11.7701 1.55627C13.1746 1.55627 14.2686 1.88716 15.0519 2.54893C15.8352 3.1972 16.2269 4.10207 16.2269 5.26354C16.2269 5.8983 16.0783 6.50605 15.7812 7.08679C15.4841 7.66753 15.0046 8.16048 14.3429 8.56565C13.6946 8.95731 12.8168 9.20716 11.7093 9.3152ZM5.10509 15.7776L3.48443 13.8125L11.0408 13.8125C11.6485 13.8125 12.1212 13.664 12.4589 13.3669C12.7965 13.0697 12.9653 12.6578 12.9653 12.1311C12.9653 11.6044 12.783 11.1857 12.4183 10.8751C12.0537 10.551 11.5135 10.3889 10.7977 10.3889L4.55812 10.3889L4.55812 7.51221L10.2304 7.51221C10.7166 7.51221 11.1218 7.37041 11.4459 7.08679C11.7836 6.78967 11.9524 6.39126 11.9524 5.89155C11.9524 5.48638 11.8106 5.1555 11.527 4.89889C11.2434 4.62878 10.8382 4.49373 10.3115 4.49373L3.50469 4.49373L5.10509 2.52867L6.13827 8.95055L5.10509 15.7776ZM31.9503 7.63376V10.6725L20.8285 10.6725V7.63376L31.9503 7.63376ZM23.6849 9.15314L22.6923 15.2509L20.9906 13.3466L32.6188 13.3466V16.75L18.4988 16.75L19.6535 9.15314L18.4988 1.55627L32.5175 1.55627V4.95967L20.9906 4.95967L22.6923 3.05539L23.6849 9.15314ZM69.0189 10.1661C68.9784 11.0844 68.7893 11.9623 68.4517 12.7996C68.1276 13.6235 67.6481 14.3595 67.0133 15.0078C66.3921 15.6561 65.6088 16.1625 64.6634 16.5272C63.7315 16.8918 62.6443 17.0741 61.4018 17.0741C60.2133 17.0741 59.0991 16.9053 58.0592 16.5677C57.0193 16.2165 56.1009 15.7033 55.3041 15.028C54.5207 14.3528 53.9062 13.5222 53.4605 12.5363C53.0284 11.5504 52.8123 10.4227 52.8123 9.15314C52.8123 7.88362 53.0351 6.7559 53.4808 5.77C53.9265 4.7841 54.5477 3.95351 55.3446 3.27823C56.1549 2.60295 57.0868 2.0965 58.1402 1.75886C59.2072 1.40771 60.3686 1.23214 61.6246 1.23214C63.2993 1.23214 64.7444 1.48875 65.9599 2.00196C67.1754 2.51517 68.1546 3.21745 68.8974 4.10882C69.6402 5.00019 70.1196 6.03336 70.3357 7.20834L66.1017 7.20834C65.9667 6.69513 65.6898 6.2562 65.2711 5.89155C64.866 5.5134 64.3528 5.22978 63.7315 5.0407C63.1238 4.83812 62.4282 4.73683 61.6449 4.73683C60.6995 4.73683 59.8824 4.90565 59.1936 5.24328C58.5049 5.56742 57.9714 6.06037 57.5932 6.72214C57.2151 7.37041 57.026 8.18074 57.026 9.15314C57.026 10.139 57.2286 10.9696 57.6338 11.6449C58.0389 12.3202 58.6129 12.8266 59.3557 13.1643C60.112 13.5019 60.9966 13.6707 62.0095 13.6707C62.9955 13.6707 63.8666 13.5357 64.6229 13.2656C65.3792 12.982 65.9802 12.57 66.4259 12.0298C66.885 11.4896 67.1484 10.8413 67.2159 10.085L69.0189 10.1661ZM62.4147 11.8475V8.88978H70.4775V16.75H67.4995L66.9121 10.7333L67.7021 11.8475H62.4147ZM85.6348 7.63376V10.6725L74.513 10.6725V7.63376L85.6348 7.63376ZM77.3694 9.15314L76.3767 15.2509L74.6751 13.3466L86.3033 13.3466V16.75H72.1833L73.338 9.15314L72.1833 1.55627L86.202 1.55627V4.95967L74.6751 4.95967L76.3767 3.05539L77.3694 9.15314ZM102.475 13.8125L101.179 14.0759V1.55627L105.25 1.55627V16.75L99.9631 16.75L91.1912 4.25063L92.4675 3.98727V16.75H88.3956V1.55627L93.8248 1.55627L102.475 13.8125ZM124.618 10.3889C124.469 11.7259 124.01 12.9009 123.24 13.9138C122.47 14.9132 121.457 15.6898 120.201 16.2435C118.959 16.7973 117.527 17.0741 115.907 17.0741C114.137 17.0741 112.591 16.7432 111.267 16.0815C109.944 15.4197 108.911 14.4946 108.168 13.3061C107.439 12.1176 107.074 10.7333 107.074 9.15314C107.074 7.57299 107.439 6.18867 108.168 5.00018C108.911 3.8117 109.944 2.88657 111.267 2.2248C112.591 1.56303 114.137 1.23214 115.907 1.23214C117.527 1.23214 118.959 1.509 120.201 2.06273C121.457 2.61646 122.47 3.39978 123.24 4.41269C124.01 5.4121 124.469 6.58033 124.618 7.91738L120.404 7.91738C120.269 7.26911 120.006 6.72214 119.614 6.27646C119.222 5.81727 118.709 5.46613 118.074 5.22303C117.453 4.97993 116.73 4.85838 115.907 4.85838C114.961 4.85838 114.144 5.03395 113.455 5.38509C112.767 5.72273 112.24 6.21568 111.875 6.86395C111.511 7.49871 111.328 8.26177 111.328 9.15314C111.328 10.0445 111.511 10.8143 111.875 11.4626C112.24 12.0973 112.767 12.5903 113.455 12.9414C114.144 13.2791 114.961 13.4479 115.907 13.4479C116.73 13.4479 117.453 13.3331 118.074 13.1035C118.709 12.8739 119.222 12.5295 119.614 12.0703C120.006 11.6111 120.269 11.0507 120.404 10.3889H124.618ZM130.55 16.75V9.35572H134.764V16.75H130.55ZM123.419 1.55627L128.078 1.55627L133.589 8.56565H131.705L137.195 1.55627L141.854 1.55627L133.994 11.5436L131.299 11.5841L123.419 1.55627Z" fill="#E3F4F8"/>
<path d="M47.6943 17.5298L40.3437 14.7425L39.3282 17.5298H35L41.1416 1.75L45.9292 1.75L52.5 19.25L47.6943 17.5298ZM45.9292 13.3561L43.5112 5.99841L41.4318 11.7753L45.9292 13.3561Z" fill="#00D7FF"/>
</svg>
