<svg width="164" height="164" viewBox="0 0 164 164" fill="none" xmlns="http://www.w3.org/2000/svg">
<path d="M82.4499 53.57L90.26 58.08L94.22 55.8L82.4499 49L62.79 60.36L66.7299 62.64L82.4499 53.57Z" fill="white"/>
<path d="M98.1603 58.0801L82.4503 67.1501L74.6403 62.6401L70.6903 64.9201L82.4503 71.7101L102.12 60.3601L98.1603 58.0801Z" fill="white"/>
<path d="M65.9509 73.3405L62.0009 71.0605V84.6405L81.6609 96.0005V91.4405L65.9509 82.3605V73.3405Z" fill="white"/>
<path d="M62.0009 66.4995L77.7109 75.5695V84.5895L81.6609 86.8795V73.2895L62.0009 61.9395V66.4995Z" fill="white"/>
<path d="M95.0111 71.06V66.5L83.2411 73.29V96L87.1911 93.72V75.57L95.0111 71.06Z" fill="white"/>
<path d="M98.9515 64.2195V82.3595L91.1415 86.8795V91.4395L102.912 84.6395V61.9395L98.9515 64.2195Z" fill="white"/>
<path d="M59.7111 108.545H57.3077C57.2907 108.347 57.2452 108.166 57.1713 108.004C57.1003 107.842 57.0009 107.703 56.873 107.587C56.748 107.467 56.5961 107.376 56.4171 107.314C56.2381 107.249 56.035 107.216 55.8077 107.216C55.41 107.216 55.0733 107.312 54.7978 107.506C54.525 107.699 54.3176 107.976 54.1756 108.337C54.0364 108.697 53.9668 109.131 53.9668 109.636C53.9668 110.17 54.0378 110.618 54.1799 110.979C54.3248 111.337 54.5336 111.607 54.8063 111.788C55.079 111.967 55.4071 112.057 55.7907 112.057C56.0094 112.057 56.2054 112.03 56.3787 111.976C56.552 111.919 56.7026 111.838 56.8304 111.733C56.9583 111.628 57.062 111.501 57.1415 111.354C57.2239 111.203 57.2793 111.034 57.3077 110.847L59.7111 110.864C59.6827 111.233 59.579 111.609 59.4 111.993C59.2211 112.374 58.9668 112.726 58.6373 113.05C58.3105 113.371 57.9057 113.629 57.4228 113.825C56.9398 114.021 56.3787 114.119 55.7395 114.119C54.9384 114.119 54.2196 113.947 53.5833 113.604C52.9498 113.26 52.4483 112.754 52.079 112.087C51.7125 111.419 51.5293 110.602 51.5293 109.636C51.5293 108.665 51.7168 107.847 52.0918 107.182C52.4668 106.514 52.9725 106.01 53.6088 105.669C54.2452 105.325 54.9554 105.153 55.7395 105.153C56.2907 105.153 56.7978 105.229 57.2608 105.379C57.7239 105.53 58.1301 105.75 58.4796 106.04C58.829 106.327 59.1103 106.68 59.3233 107.101C59.5364 107.521 59.6657 108.003 59.7111 108.545Z" fill="white"/>
<path d="M75.5508 105.273H77.9201V110.864C77.9201 111.528 77.761 112.104 77.4429 112.589C77.1275 113.072 76.6872 113.446 76.1218 113.71C75.5565 113.972 74.9002 114.102 74.1531 114.102C73.4002 114.102 72.7412 113.972 72.1758 113.71C71.6105 113.446 71.1701 113.072 70.8548 112.589C70.5423 112.104 70.386 111.528 70.386 110.864V105.273H72.7554V110.659C72.7554 110.929 72.815 111.17 72.9343 111.384C73.0537 111.594 73.2184 111.759 73.4287 111.878C73.6417 111.997 73.8832 112.057 74.1531 112.057C74.4258 112.057 74.6673 111.997 74.8775 111.878C75.0877 111.759 75.2525 111.594 75.3718 111.384C75.4912 111.17 75.5508 110.929 75.5508 110.659V105.273Z" fill="white"/>
<path d="M88.6462 114V105.273H92.4303C93.0951 105.273 93.6533 105.362 94.105 105.541C94.5596 105.72 94.9019 105.973 95.132 106.3C95.365 106.626 95.4814 107.011 95.4814 107.455C95.4814 107.776 95.4104 108.068 95.2684 108.332C95.1292 108.597 94.9331 108.818 94.6803 108.997C94.4275 109.173 94.132 109.295 93.7939 109.364V109.449C94.1689 109.463 94.5098 109.558 94.8167 109.734C95.1235 109.908 95.3678 110.148 95.5496 110.455C95.7314 110.759 95.8223 111.116 95.8223 111.528C95.8223 112.006 95.6973 112.43 95.4473 112.803C95.2002 113.175 94.8479 113.467 94.3905 113.68C93.9331 113.893 93.3877 114 92.7542 114H88.6462ZM91.0155 112.108H92.1235C92.5212 112.108 92.8195 112.034 93.0184 111.886C93.2172 111.736 93.3167 111.514 93.3167 111.222C93.3167 111.017 93.2698 110.844 93.176 110.702C93.0823 110.56 92.9488 110.452 92.7755 110.378C92.605 110.304 92.399 110.267 92.1576 110.267H91.0155V112.108ZM91.0155 108.801H91.9871C92.1945 108.801 92.3777 108.768 92.5368 108.703C92.6959 108.638 92.8195 108.544 92.9076 108.422C92.9985 108.297 93.0439 108.145 93.0439 107.966C93.0439 107.696 92.9473 107.49 92.7542 107.348C92.561 107.203 92.3167 107.131 92.0212 107.131H91.0155V108.801Z" fill="white"/>
<path d="M106.262 114V105.273H112.552V107.182H108.631V108.682H112.228V110.591H108.631V112.091H112.535V114H106.262Z" fill="white"/>
</svg>
