<svg width="164" height="164" viewBox="0 0 164 164" fill="none" xmlns="http://www.w3.org/2000/svg">
<path d="M37.9152 91.0444H45.4895L26.7264 72.2811H19.1519L37.9152 91.0444Z" fill="white"/>
<path d="M30.6162 72.2811L48.7036 90.3685V72.2811H43.8088V77.9917L38.0983 72.2811L30.6162 72.2811Z" fill="white"/>
<path d="M15.9805 72.9093V91.0444H20.8752V85.3338L26.5857 91.0444H34.1155L15.9805 72.9093Z" fill="white"/>
<path d="M75.2687 72.1536V91.0308H70.9919L64.171 81.1129H64.0604V91.0308H58.9355V72.1536H63.2861L69.9964 82.0346H70.1439V72.1536H75.2687Z" fill="white"/>
<path d="M76.1355 91.0308V72.1536H89.7404V76.283H81.2604V79.5275H89.0399V83.6569H81.2604V86.9014H89.7035V91.0308H76.1355Z" fill="white"/>
<path d="M100.901 78.0527C100.852 77.4382 100.621 76.9589 100.209 76.6148C99.8039 76.2707 99.1863 76.0986 98.3567 76.0986C97.8283 76.0986 97.3951 76.1632 97.0571 76.2922C96.7253 76.4151 96.4795 76.5841 96.3197 76.7992C96.1599 77.0142 96.077 77.26 96.0708 77.5365C96.0585 77.7639 96.0985 77.9698 96.1906 78.1541C96.289 78.3323 96.4426 78.4952 96.6515 78.6426C96.8604 78.784 97.1277 78.913 97.4534 79.0298C97.7791 79.1465 98.1662 79.251 98.6148 79.3432L100.163 79.675C101.208 79.8962 102.102 80.1881 102.846 80.5506C103.589 80.9132 104.197 81.3403 104.671 81.8319C105.144 82.3173 105.491 82.8642 105.712 83.4725C105.94 84.0809 106.056 84.7445 106.062 85.4635C106.056 86.7048 105.746 87.7556 105.132 88.6158C104.517 89.4761 103.638 90.1306 102.495 90.5792C101.359 91.0277 99.9913 91.252 98.3936 91.252C96.7529 91.252 95.3211 91.0093 94.0983 90.5238C92.8816 90.0384 91.9353 89.2918 91.2593 88.284C90.5895 87.2701 90.2516 85.9735 90.2454 84.3943H95.1122C95.1429 84.9719 95.2873 85.4574 95.5454 85.8506C95.8035 86.2439 96.1661 86.5419 96.6331 86.7447C97.1062 86.9475 97.6685 87.0489 98.3199 87.0489C98.8668 87.0489 99.3246 86.9813 99.6933 86.8461C100.062 86.7109 100.342 86.5235 100.532 86.2838C100.723 86.0442 100.821 85.7707 100.827 85.4635C100.821 85.1747 100.726 84.9227 100.541 84.7077C100.363 84.4865 100.068 84.2898 99.6564 84.1178C99.2447 83.9396 98.6886 83.7736 97.988 83.62L96.1077 83.2145C94.4363 82.8519 93.1182 82.2466 92.1534 81.3986C91.1948 80.5445 90.7186 79.38 90.7247 77.9052C90.7186 76.707 91.0381 75.6593 91.6833 74.7621C92.3347 73.8588 93.2349 73.1552 94.384 72.6513C95.5393 72.1474 96.8635 71.8955 98.3567 71.8955C99.8807 71.8955 101.199 72.1505 102.311 72.6606C103.423 73.1706 104.28 73.8895 104.883 74.8174C105.491 75.7392 105.798 76.8176 105.804 78.0527H100.901Z" fill="white"/>
<path d="M105.938 76.283V72.1536H122.345V76.283H116.667V91.0308H111.616V76.283H105.938Z" fill="white"/>
<path d="M127.842 72.1536V91.0308H122.717V72.1536H127.842Z" fill="white"/>
<path d="M147 81.5922C147 83.6938 146.592 85.4666 145.774 86.9106C144.957 88.3485 143.854 89.4393 142.465 90.1828C141.077 90.9202 139.528 91.2889 137.82 91.2889C136.099 91.2889 134.545 90.9171 133.156 90.1736C131.773 89.4239 130.673 88.3301 129.856 86.8922C129.045 85.4481 128.639 83.6815 128.639 81.5922C128.639 79.4906 129.045 77.7209 129.856 76.283C130.673 74.8389 131.773 73.7482 133.156 73.0108C134.545 72.2673 136.099 71.8955 137.82 71.8955C139.528 71.8955 141.077 72.2673 142.465 73.0108C143.854 73.7482 144.957 74.8389 145.774 76.283C146.592 77.7209 147 79.4906 147 81.5922ZM141.728 81.5922C141.728 80.4615 141.577 79.5091 141.276 78.7348C140.981 77.9544 140.542 77.3645 139.958 76.9651C139.381 76.5595 138.668 76.3567 137.82 76.3567C136.972 76.3567 136.256 76.5595 135.672 76.9651C135.094 77.3645 134.655 77.9544 134.354 78.7348C134.059 79.5091 133.912 80.4615 133.912 81.5922C133.912 82.7229 134.059 83.6784 134.354 84.4588C134.655 85.2331 135.094 85.823 135.672 86.2285C136.256 86.628 136.972 86.8277 137.82 86.8277C138.668 86.8277 139.381 86.628 139.958 86.2285C140.542 85.823 140.981 85.2331 141.276 84.4588C141.577 83.6784 141.728 82.7229 141.728 81.5922Z" fill="white"/>
</svg>
